<mxfile host="app.diagrams.net" agent="Mozilla/5.0 (Windows NT 10.0; Win64; x64) AppleWebKit/537.36 (KHTML, like Gecko) Chrome/129.0.0.0 Safari/537.36" version="24.7.17">
  <diagram name="Σελίδα-1" id="qbzgmHOInSNb4eMY_Fp2">
    <mxGraphModel dx="2440" dy="868" grid="1" gridSize="10" guides="1" tooltips="1" connect="1" arrows="1" fold="1" page="1" pageScale="1" pageWidth="827" pageHeight="1169" math="0" shadow="0">
      <root>
        <mxCell id="0" />
        <mxCell id="1" parent="0" />
        <mxCell id="wYi5QQP4cXFv1H6Gll4Q-149" value="&lt;div&gt;&lt;br&gt;&lt;/div&gt;&lt;div&gt;&lt;br&gt;&lt;/div&gt;&lt;div&gt;&lt;br&gt;&lt;/div&gt;&lt;div&gt;&lt;br&gt;&lt;/div&gt;&lt;div&gt;&lt;br&gt;&lt;/div&gt;&lt;div&gt;&lt;br&gt;&lt;/div&gt;&lt;div&gt;&amp;nbsp; &amp;nbsp; &amp;nbsp; &amp;nbsp; &amp;nbsp; &amp;nbsp; &amp;nbsp; &amp;nbsp; &amp;nbsp; &amp;nbsp; &amp;nbsp; &amp;nbsp; &amp;nbsp; &amp;nbsp; &amp;nbsp; &amp;nbsp; &amp;nbsp; &amp;nbsp; &amp;nbsp; &amp;nbsp; &amp;nbsp; &amp;nbsp; &amp;nbsp; &amp;nbsp; &amp;nbsp; &amp;nbsp; &amp;nbsp; &amp;nbsp; &amp;nbsp; &amp;nbsp; &amp;nbsp; &amp;nbsp; &amp;nbsp; &amp;nbsp; &amp;nbsp; &amp;nbsp; &amp;nbsp; &amp;nbsp; &amp;nbsp; &amp;nbsp; &amp;nbsp; &amp;nbsp; &amp;nbsp; &amp;nbsp; &amp;nbsp; &amp;nbsp; &amp;nbsp; &amp;nbsp; &amp;nbsp; &amp;nbsp; &amp;nbsp; ... same&lt;/div&gt;&lt;div&gt;&lt;br&gt;&lt;/div&gt;&lt;div&gt;&lt;br&gt;&lt;/div&gt;&lt;div&gt;&lt;br&gt;&lt;/div&gt;&lt;div&gt;&lt;br&gt;&lt;/div&gt;&lt;div&gt;&lt;br&gt;&lt;/div&gt;&lt;div&gt;&lt;br&gt;&lt;/div&gt;&lt;div&gt;&lt;br&gt;&lt;/div&gt;&lt;div&gt;Part 3&amp;nbsp; &amp;nbsp; &amp;nbsp; &amp;nbsp; &amp;nbsp; &amp;nbsp; &amp;nbsp; &amp;nbsp; &amp;nbsp; &amp;nbsp; &amp;nbsp; &amp;nbsp; &amp;nbsp; &amp;nbsp; &amp;nbsp; &amp;nbsp; &amp;nbsp; &amp;nbsp; &amp;nbsp; &amp;nbsp; &amp;nbsp; &amp;nbsp; &amp;nbsp; &amp;nbsp; &amp;nbsp; &amp;nbsp; &amp;nbsp; &amp;nbsp; &amp;nbsp; &amp;nbsp; &amp;nbsp; &amp;nbsp; &amp;nbsp; &amp;nbsp; &amp;nbsp; &amp;nbsp; &amp;nbsp; &amp;nbsp; &amp;nbsp; &amp;nbsp; &amp;nbsp; &amp;nbsp; &amp;nbsp; &amp;nbsp; &amp;nbsp; &amp;nbsp; &amp;nbsp; &amp;nbsp; &amp;nbsp; &amp;nbsp; &amp;nbsp; &amp;nbsp; &amp;nbsp; &amp;nbsp; &amp;nbsp; &amp;nbsp; &amp;nbsp; &amp;nbsp; &amp;nbsp; &amp;nbsp; &amp;nbsp; &amp;nbsp; &amp;nbsp; &amp;nbsp; &amp;nbsp; &amp;nbsp; &amp;nbsp; &amp;nbsp; &amp;nbsp; &amp;nbsp; &amp;nbsp; &amp;nbsp; &amp;nbsp; &amp;nbsp; &amp;nbsp; &amp;nbsp; &amp;nbsp; &amp;nbsp; &amp;nbsp; &amp;nbsp; &amp;nbsp; &amp;nbsp; &amp;nbsp; &amp;nbsp; &amp;nbsp; &amp;nbsp; &amp;nbsp; &amp;nbsp; &amp;nbsp; &amp;nbsp; &amp;nbsp; &amp;nbsp; &amp;nbsp; &amp;nbsp; &amp;nbsp; &amp;nbsp; &amp;nbsp; &amp;nbsp;&lt;/div&gt;" style="rounded=0;whiteSpace=wrap;html=1;" vertex="1" parent="1">
          <mxGeometry x="30" y="40" width="700" height="230" as="geometry" />
        </mxCell>
        <mxCell id="wYi5QQP4cXFv1H6Gll4Q-78" style="edgeStyle=orthogonalEdgeStyle;rounded=0;orthogonalLoop=1;jettySize=auto;html=1;exitX=1;exitY=0.5;exitDx=0;exitDy=0;entryX=0;entryY=0.5;entryDx=0;entryDy=0;endArrow=none;endFill=0;" edge="1" parent="1" source="wYi5QQP4cXFv1H6Gll4Q-1" target="wYi5QQP4cXFv1H6Gll4Q-29">
          <mxGeometry relative="1" as="geometry">
            <Array as="points">
              <mxPoint x="210" y="470" />
              <mxPoint x="210" y="410" />
            </Array>
          </mxGeometry>
        </mxCell>
        <mxCell id="wYi5QQP4cXFv1H6Gll4Q-1" value="Counter" style="rounded=0;whiteSpace=wrap;html=1;" vertex="1" parent="1">
          <mxGeometry x="40" y="430" width="80" height="80" as="geometry" />
        </mxCell>
        <mxCell id="wYi5QQP4cXFv1H6Gll4Q-90" style="edgeStyle=orthogonalEdgeStyle;rounded=0;orthogonalLoop=1;jettySize=auto;html=1;exitX=1;exitY=0.5785714285714286;exitDx=0;exitDy=3;exitPerimeter=0;endArrow=none;endFill=0;" edge="1" parent="1" source="wYi5QQP4cXFv1H6Gll4Q-5">
          <mxGeometry relative="1" as="geometry">
            <mxPoint x="190" y="563.7142857142857" as="targetPoint" />
          </mxGeometry>
        </mxCell>
        <mxCell id="wYi5QQP4cXFv1H6Gll4Q-91" style="edgeStyle=orthogonalEdgeStyle;rounded=0;orthogonalLoop=1;jettySize=auto;html=1;exitX=0;exitY=0.42857142857142855;exitDx=0;exitDy=0;exitPerimeter=0;entryX=0;entryY=0.5;entryDx=0;entryDy=0;endArrow=none;endFill=0;" edge="1" parent="1" source="wYi5QQP4cXFv1H6Gll4Q-5" target="wYi5QQP4cXFv1H6Gll4Q-1">
          <mxGeometry relative="1" as="geometry" />
        </mxCell>
        <mxCell id="wYi5QQP4cXFv1H6Gll4Q-99" style="edgeStyle=orthogonalEdgeStyle;rounded=0;orthogonalLoop=1;jettySize=auto;html=1;exitX=1;exitY=0.19285714285714287;exitDx=0;exitDy=3;exitPerimeter=0;endArrow=none;endFill=0;" edge="1" parent="1" source="wYi5QQP4cXFv1H6Gll4Q-5">
          <mxGeometry relative="1" as="geometry">
            <mxPoint x="170" y="470" as="targetPoint" />
            <Array as="points">
              <mxPoint x="180" y="537" />
              <mxPoint x="180" y="470" />
            </Array>
          </mxGeometry>
        </mxCell>
        <mxCell id="wYi5QQP4cXFv1H6Gll4Q-5" value="Mux" style="shadow=0;dashed=0;align=center;html=1;strokeWidth=1;shape=mxgraph.electrical.abstract.mux2;operation=demux;whiteSpace=wrap;" vertex="1" parent="1">
          <mxGeometry x="110" y="520" width="50" height="70" as="geometry" />
        </mxCell>
        <mxCell id="wYi5QQP4cXFv1H6Gll4Q-8" value="4b&#39;0000" style="text;html=1;align=center;verticalAlign=middle;resizable=0;points=[];autosize=1;strokeColor=none;fillColor=none;fontSize=7;" vertex="1" parent="1">
          <mxGeometry x="150" y="560" width="50" height="20" as="geometry" />
        </mxCell>
        <mxCell id="wYi5QQP4cXFv1H6Gll4Q-12" value="reset_sync" style="text;html=1;align=center;verticalAlign=middle;resizable=0;points=[];autosize=1;strokeColor=none;fillColor=none;fontSize=7;" vertex="1" parent="1">
          <mxGeometry x="105" y="590" width="60" height="20" as="geometry" />
        </mxCell>
        <mxCell id="wYi5QQP4cXFv1H6Gll4Q-26" value="new_clk" style="text;html=1;align=center;verticalAlign=middle;resizable=0;points=[];autosize=1;strokeColor=none;fillColor=none;fontSize=8;" vertex="1" parent="1">
          <mxGeometry x="55" y="510" width="50" height="20" as="geometry" />
        </mxCell>
        <mxCell id="wYi5QQP4cXFv1H6Gll4Q-79" style="edgeStyle=orthogonalEdgeStyle;rounded=0;orthogonalLoop=1;jettySize=auto;html=1;exitX=1;exitY=0.5;exitDx=0;exitDy=0;entryX=0;entryY=0.5;entryDx=0;entryDy=0;endArrow=none;endFill=0;" edge="1" parent="1" source="wYi5QQP4cXFv1H6Gll4Q-29" target="wYi5QQP4cXFv1H6Gll4Q-31">
          <mxGeometry relative="1" as="geometry" />
        </mxCell>
        <mxCell id="wYi5QQP4cXFv1H6Gll4Q-29" value="char&lt;br&gt;Decoder" style="rounded=0;whiteSpace=wrap;html=1;" vertex="1" parent="1">
          <mxGeometry x="260" y="370" width="80" height="80" as="geometry" />
        </mxCell>
        <mxCell id="wYi5QQP4cXFv1H6Gll4Q-92" style="edgeStyle=orthogonalEdgeStyle;rounded=0;orthogonalLoop=1;jettySize=auto;html=1;exitX=0;exitY=0.5;exitDx=0;exitDy=0;endArrow=none;endFill=0;" edge="1" parent="1" source="wYi5QQP4cXFv1H6Gll4Q-30">
          <mxGeometry relative="1" as="geometry">
            <mxPoint x="210" y="470" as="targetPoint" />
          </mxGeometry>
        </mxCell>
        <mxCell id="wYi5QQP4cXFv1H6Gll4Q-94" style="edgeStyle=orthogonalEdgeStyle;rounded=0;orthogonalLoop=1;jettySize=auto;html=1;exitX=1;exitY=0.5;exitDx=0;exitDy=0;endArrow=none;endFill=0;" edge="1" parent="1" source="wYi5QQP4cXFv1H6Gll4Q-30">
          <mxGeometry relative="1" as="geometry">
            <mxPoint x="680" y="600" as="targetPoint" />
          </mxGeometry>
        </mxCell>
        <mxCell id="wYi5QQP4cXFv1H6Gll4Q-30" value="anode&lt;br&gt;Decoder" style="rounded=0;whiteSpace=wrap;html=1;" vertex="1" parent="1">
          <mxGeometry x="260" y="560" width="80" height="80" as="geometry" />
        </mxCell>
        <mxCell id="wYi5QQP4cXFv1H6Gll4Q-31" value="LED&lt;br&gt;Decoder" style="rounded=0;whiteSpace=wrap;html=1;" vertex="1" parent="1">
          <mxGeometry x="410" y="370" width="80" height="80" as="geometry" />
        </mxCell>
        <mxCell id="wYi5QQP4cXFv1H6Gll4Q-63" value="" style="group" vertex="1" connectable="0" parent="1">
          <mxGeometry x="700" y="330" width="90" height="395" as="geometry" />
        </mxCell>
        <mxCell id="wYi5QQP4cXFv1H6Gll4Q-96" style="edgeStyle=orthogonalEdgeStyle;rounded=0;orthogonalLoop=1;jettySize=auto;html=1;exitX=0.5;exitY=1;exitDx=0;exitDy=0;endArrow=none;endFill=0;" edge="1" parent="wYi5QQP4cXFv1H6Gll4Q-63" source="wYi5QQP4cXFv1H6Gll4Q-42">
          <mxGeometry relative="1" as="geometry">
            <mxPoint x="-20" y="270" as="targetPoint" />
            <Array as="points">
              <mxPoint x="40" y="90" />
              <mxPoint x="-20" y="90" />
            </Array>
          </mxGeometry>
        </mxCell>
        <mxCell id="wYi5QQP4cXFv1H6Gll4Q-42" value="" style="whiteSpace=wrap;html=1;aspect=fixed;" vertex="1" parent="wYi5QQP4cXFv1H6Gll4Q-63">
          <mxGeometry width="80" height="80" as="geometry" />
        </mxCell>
        <mxCell id="wYi5QQP4cXFv1H6Gll4Q-38" value="" style="verticalLabelPosition=bottom;shadow=0;dashed=0;align=center;html=1;verticalAlign=top;shape=mxgraph.electrical.opto_electronics.7_segment_display_with_dp;pointerEvents=1;" vertex="1" parent="wYi5QQP4cXFv1H6Gll4Q-63">
          <mxGeometry x="20" y="16.549999999999983" width="40" height="46.9" as="geometry" />
        </mxCell>
        <mxCell id="wYi5QQP4cXFv1H6Gll4Q-86" style="edgeStyle=orthogonalEdgeStyle;rounded=0;orthogonalLoop=1;jettySize=auto;html=1;exitX=0;exitY=0.5;exitDx=0;exitDy=0;endArrow=none;endFill=0;" edge="1" parent="wYi5QQP4cXFv1H6Gll4Q-63" source="wYi5QQP4cXFv1H6Gll4Q-45">
          <mxGeometry relative="1" as="geometry">
            <mxPoint x="-60" y="70" as="targetPoint" />
          </mxGeometry>
        </mxCell>
        <mxCell id="wYi5QQP4cXFv1H6Gll4Q-97" style="edgeStyle=orthogonalEdgeStyle;rounded=0;orthogonalLoop=1;jettySize=auto;html=1;exitX=0.5;exitY=1;exitDx=0;exitDy=0;endArrow=none;endFill=0;" edge="1" parent="wYi5QQP4cXFv1H6Gll4Q-63" source="wYi5QQP4cXFv1H6Gll4Q-45">
          <mxGeometry relative="1" as="geometry">
            <mxPoint x="-20" y="200" as="targetPoint" />
            <Array as="points">
              <mxPoint x="40" y="200" />
            </Array>
          </mxGeometry>
        </mxCell>
        <mxCell id="wYi5QQP4cXFv1H6Gll4Q-45" value="" style="whiteSpace=wrap;html=1;aspect=fixed;" vertex="1" parent="wYi5QQP4cXFv1H6Gll4Q-63">
          <mxGeometry y="103.44999999999999" width="80" height="80" as="geometry" />
        </mxCell>
        <mxCell id="wYi5QQP4cXFv1H6Gll4Q-46" value="" style="verticalLabelPosition=bottom;shadow=0;dashed=0;align=center;html=1;verticalAlign=top;shape=mxgraph.electrical.opto_electronics.7_segment_display_with_dp;pointerEvents=1;" vertex="1" parent="wYi5QQP4cXFv1H6Gll4Q-63">
          <mxGeometry x="20" y="120" width="40" height="46.9" as="geometry" />
        </mxCell>
        <mxCell id="wYi5QQP4cXFv1H6Gll4Q-87" style="edgeStyle=orthogonalEdgeStyle;rounded=0;orthogonalLoop=1;jettySize=auto;html=1;exitX=0;exitY=0.5;exitDx=0;exitDy=0;endArrow=none;endFill=0;" edge="1" parent="wYi5QQP4cXFv1H6Gll4Q-63" source="wYi5QQP4cXFv1H6Gll4Q-47">
          <mxGeometry relative="1" as="geometry">
            <mxPoint x="-60" y="130" as="targetPoint" />
          </mxGeometry>
        </mxCell>
        <mxCell id="wYi5QQP4cXFv1H6Gll4Q-95" style="edgeStyle=orthogonalEdgeStyle;rounded=0;orthogonalLoop=1;jettySize=auto;html=1;exitX=0.5;exitY=1;exitDx=0;exitDy=0;endArrow=none;endFill=0;" edge="1" parent="wYi5QQP4cXFv1H6Gll4Q-63" source="wYi5QQP4cXFv1H6Gll4Q-47">
          <mxGeometry relative="1" as="geometry">
            <mxPoint x="-30" y="270" as="targetPoint" />
            <Array as="points">
              <mxPoint x="40" y="300" />
              <mxPoint x="-20" y="300" />
              <mxPoint x="-20" y="270" />
            </Array>
          </mxGeometry>
        </mxCell>
        <mxCell id="wYi5QQP4cXFv1H6Gll4Q-47" value="" style="whiteSpace=wrap;html=1;aspect=fixed;" vertex="1" parent="wYi5QQP4cXFv1H6Gll4Q-63">
          <mxGeometry y="205" width="80" height="80" as="geometry" />
        </mxCell>
        <mxCell id="wYi5QQP4cXFv1H6Gll4Q-48" value="" style="verticalLabelPosition=bottom;shadow=0;dashed=0;align=center;html=1;verticalAlign=top;shape=mxgraph.electrical.opto_electronics.7_segment_display_with_dp;pointerEvents=1;" vertex="1" parent="wYi5QQP4cXFv1H6Gll4Q-63">
          <mxGeometry x="20" y="221.55" width="40" height="46.9" as="geometry" />
        </mxCell>
        <mxCell id="wYi5QQP4cXFv1H6Gll4Q-88" style="edgeStyle=orthogonalEdgeStyle;rounded=0;orthogonalLoop=1;jettySize=auto;html=1;exitX=0;exitY=0.5;exitDx=0;exitDy=0;endArrow=none;endFill=0;" edge="1" parent="wYi5QQP4cXFv1H6Gll4Q-63" source="wYi5QQP4cXFv1H6Gll4Q-49">
          <mxGeometry relative="1" as="geometry">
            <mxPoint x="-60" y="240" as="targetPoint" />
          </mxGeometry>
        </mxCell>
        <mxCell id="wYi5QQP4cXFv1H6Gll4Q-98" style="edgeStyle=orthogonalEdgeStyle;rounded=0;orthogonalLoop=1;jettySize=auto;html=1;exitX=0.5;exitY=1;exitDx=0;exitDy=0;endArrow=none;endFill=0;" edge="1" parent="wYi5QQP4cXFv1H6Gll4Q-63" source="wYi5QQP4cXFv1H6Gll4Q-49">
          <mxGeometry relative="1" as="geometry">
            <mxPoint x="-20" y="300" as="targetPoint" />
          </mxGeometry>
        </mxCell>
        <mxCell id="wYi5QQP4cXFv1H6Gll4Q-49" value="" style="whiteSpace=wrap;html=1;aspect=fixed;" vertex="1" parent="wYi5QQP4cXFv1H6Gll4Q-63">
          <mxGeometry y="308.45" width="80" height="80" as="geometry" />
        </mxCell>
        <mxCell id="wYi5QQP4cXFv1H6Gll4Q-50" value="" style="verticalLabelPosition=bottom;shadow=0;dashed=0;align=center;html=1;verticalAlign=top;shape=mxgraph.electrical.opto_electronics.7_segment_display_with_dp;pointerEvents=1;" vertex="1" parent="wYi5QQP4cXFv1H6Gll4Q-63">
          <mxGeometry x="20" y="325" width="40" height="46.9" as="geometry" />
        </mxCell>
        <mxCell id="wYi5QQP4cXFv1H6Gll4Q-138" value="&lt;font color=&quot;#878787&quot;&gt;&lt;i&gt;AN1&lt;/i&gt;&lt;/font&gt;" style="text;html=1;align=center;verticalAlign=middle;resizable=0;points=[];autosize=1;strokeColor=none;fillColor=none;" vertex="1" parent="wYi5QQP4cXFv1H6Gll4Q-63">
          <mxGeometry x="40" y="160" width="50" height="30" as="geometry" />
        </mxCell>
        <mxCell id="wYi5QQP4cXFv1H6Gll4Q-139" value="&lt;font color=&quot;#878787&quot;&gt;&lt;i&gt;AN2&lt;/i&gt;&lt;/font&gt;" style="text;html=1;align=center;verticalAlign=middle;resizable=0;points=[];autosize=1;strokeColor=none;fillColor=none;" vertex="1" parent="wYi5QQP4cXFv1H6Gll4Q-63">
          <mxGeometry x="40" y="260" width="50" height="30" as="geometry" />
        </mxCell>
        <mxCell id="wYi5QQP4cXFv1H6Gll4Q-140" value="&lt;font color=&quot;#878787&quot;&gt;&lt;i&gt;AN3&lt;/i&gt;&lt;/font&gt;" style="text;html=1;align=center;verticalAlign=middle;resizable=0;points=[];autosize=1;strokeColor=none;fillColor=none;" vertex="1" parent="wYi5QQP4cXFv1H6Gll4Q-63">
          <mxGeometry x="40" y="365" width="50" height="30" as="geometry" />
        </mxCell>
        <mxCell id="wYi5QQP4cXFv1H6Gll4Q-85" style="edgeStyle=orthogonalEdgeStyle;rounded=0;orthogonalLoop=1;jettySize=auto;html=1;exitX=0;exitY=0.5;exitDx=0;exitDy=0;entryX=1;entryY=0.5;entryDx=0;entryDy=0;endArrow=none;endFill=0;" edge="1" parent="1" source="wYi5QQP4cXFv1H6Gll4Q-42" target="wYi5QQP4cXFv1H6Gll4Q-60">
          <mxGeometry relative="1" as="geometry">
            <Array as="points">
              <mxPoint x="640" y="370" />
              <mxPoint x="640" y="407" />
            </Array>
          </mxGeometry>
        </mxCell>
        <mxCell id="wYi5QQP4cXFv1H6Gll4Q-102" value="" style="verticalLabelPosition=bottom;shadow=0;dashed=0;align=center;html=1;verticalAlign=top;shape=mxgraph.electrical.logic_gates.buffer2;direction=north;movable=1;resizable=1;rotatable=1;deletable=1;editable=1;locked=0;connectable=1;" vertex="1" parent="1">
          <mxGeometry x="77.5" y="500" width="5" height="15" as="geometry" />
        </mxCell>
        <mxCell id="wYi5QQP4cXFv1H6Gll4Q-107" value="" style="group" vertex="1" connectable="0" parent="1">
          <mxGeometry x="550" y="382.5" width="40" height="55" as="geometry" />
        </mxCell>
        <mxCell id="wYi5QQP4cXFv1H6Gll4Q-60" value="&lt;font style=&quot;font-size: 10px;&quot;&gt;D&lt;/font&gt;&lt;font style=&quot;&quot;&gt;&lt;span style=&quot;font-size: 11px;&quot;&gt;&amp;nbsp; &amp;nbsp; &amp;nbsp; &lt;/span&gt;&lt;font style=&quot;font-size: 10px;&quot;&gt;&amp;nbsp;Q&lt;/font&gt;&lt;/font&gt;" style="rounded=0;whiteSpace=wrap;html=1;movable=1;resizable=1;rotatable=1;deletable=1;editable=1;locked=0;connectable=1;" vertex="1" parent="wYi5QQP4cXFv1H6Gll4Q-107">
          <mxGeometry width="40" height="50" as="geometry" />
        </mxCell>
        <mxCell id="wYi5QQP4cXFv1H6Gll4Q-61" value="" style="verticalLabelPosition=bottom;shadow=0;dashed=0;align=center;html=1;verticalAlign=top;shape=mxgraph.electrical.logic_gates.buffer2;direction=north;movable=1;resizable=1;rotatable=1;deletable=1;editable=1;locked=0;connectable=1;" vertex="1" parent="wYi5QQP4cXFv1H6Gll4Q-107">
          <mxGeometry x="17.5" y="40" width="5" height="15" as="geometry" />
        </mxCell>
        <mxCell id="wYi5QQP4cXFv1H6Gll4Q-111" style="edgeStyle=orthogonalEdgeStyle;rounded=0;orthogonalLoop=1;jettySize=auto;html=1;exitX=1;exitY=0.5;exitDx=0;exitDy=0;entryX=0.009;entryY=0.569;entryDx=0;entryDy=0;entryPerimeter=0;endArrow=none;endFill=0;" edge="1" parent="1" source="wYi5QQP4cXFv1H6Gll4Q-31" target="wYi5QQP4cXFv1H6Gll4Q-60">
          <mxGeometry relative="1" as="geometry" />
        </mxCell>
        <mxCell id="wYi5QQP4cXFv1H6Gll4Q-112" value="new_clk" style="text;html=1;align=center;verticalAlign=middle;resizable=0;points=[];autosize=1;strokeColor=none;fillColor=none;fontSize=8;" vertex="1" parent="1">
          <mxGeometry x="545" y="430" width="50" height="20" as="geometry" />
        </mxCell>
        <mxCell id="wYi5QQP4cXFv1H6Gll4Q-113" value="&lt;i&gt;&lt;font color=&quot;#878787&quot;&gt;char Dec Logic will change&amp;nbsp;&lt;/font&gt;&lt;/i&gt;&lt;div&gt;&lt;i&gt;&lt;font color=&quot;#878787&quot;&gt;throughout the Lab&lt;/font&gt;&lt;/i&gt;&lt;/div&gt;" style="text;html=1;align=center;verticalAlign=middle;resizable=0;points=[];autosize=1;strokeColor=none;fillColor=none;" vertex="1" parent="1">
          <mxGeometry x="215" y="330" width="170" height="40" as="geometry" />
        </mxCell>
        <mxCell id="wYi5QQP4cXFv1H6Gll4Q-114" value="&lt;font color=&quot;#878787&quot;&gt;&lt;i&gt;Part A decoder&amp;nbsp;&lt;/i&gt;&lt;/font&gt;&lt;div&gt;&lt;font color=&quot;#878787&quot;&gt;&lt;i&gt;4 bit for now&lt;/i&gt;&lt;/font&gt;&lt;/div&gt;" style="text;html=1;align=center;verticalAlign=middle;resizable=0;points=[];autosize=1;strokeColor=none;fillColor=none;" vertex="1" parent="1">
          <mxGeometry x="395" y="330" width="110" height="40" as="geometry" />
        </mxCell>
        <mxCell id="wYi5QQP4cXFv1H6Gll4Q-115" value="&lt;div&gt;&amp;nbsp; &amp;nbsp;4&lt;/div&gt;/" style="text;html=1;align=center;verticalAlign=middle;resizable=0;points=[];autosize=1;strokeColor=none;fillColor=none;" vertex="1" parent="1">
          <mxGeometry x="215" y="382.5" width="40" height="40" as="geometry" />
        </mxCell>
        <mxCell id="wYi5QQP4cXFv1H6Gll4Q-121" value="&lt;div&gt;&amp;nbsp; &amp;nbsp;4&lt;/div&gt;/" style="text;html=1;align=center;verticalAlign=middle;resizable=0;points=[];autosize=1;strokeColor=none;fillColor=none;" vertex="1" parent="1">
          <mxGeometry x="355" y="382.5" width="40" height="40" as="geometry" />
        </mxCell>
        <mxCell id="wYi5QQP4cXFv1H6Gll4Q-122" value="&lt;div&gt;&amp;nbsp; &amp;nbsp;7&lt;/div&gt;/" style="text;html=1;align=center;verticalAlign=middle;resizable=0;points=[];autosize=1;strokeColor=none;fillColor=none;" vertex="1" parent="1">
          <mxGeometry x="500" y="382.5" width="40" height="40" as="geometry" />
        </mxCell>
        <mxCell id="wYi5QQP4cXFv1H6Gll4Q-123" value="&lt;div&gt;&amp;nbsp; &amp;nbsp;4&lt;/div&gt;/" style="text;html=1;align=center;verticalAlign=middle;resizable=0;points=[];autosize=1;strokeColor=none;fillColor=none;" vertex="1" parent="1">
          <mxGeometry x="450" y="570" width="40" height="40" as="geometry" />
        </mxCell>
        <mxCell id="wYi5QQP4cXFv1H6Gll4Q-126" value="&lt;div&gt;&amp;nbsp; &amp;nbsp;4&lt;/div&gt;/" style="text;html=1;align=center;verticalAlign=middle;resizable=0;points=[];autosize=1;strokeColor=none;fillColor=none;" vertex="1" parent="1">
          <mxGeometry x="210" y="570" width="40" height="40" as="geometry" />
        </mxCell>
        <mxCell id="wYi5QQP4cXFv1H6Gll4Q-127" value="&lt;div&gt;&amp;nbsp; &amp;nbsp;4&lt;/div&gt;/" style="text;html=1;align=center;verticalAlign=middle;resizable=0;points=[];autosize=1;strokeColor=none;fillColor=none;" vertex="1" parent="1">
          <mxGeometry x="125" y="440" width="40" height="40" as="geometry" />
        </mxCell>
        <mxCell id="wYi5QQP4cXFv1H6Gll4Q-128" value="&lt;div&gt;&amp;nbsp; &amp;nbsp;7&lt;/div&gt;/" style="text;html=1;align=center;verticalAlign=middle;resizable=0;points=[];autosize=1;strokeColor=none;fillColor=none;" vertex="1" parent="1">
          <mxGeometry x="640" y="442.5" width="40" height="40" as="geometry" />
        </mxCell>
        <mxCell id="wYi5QQP4cXFv1H6Gll4Q-129" value="&lt;div&gt;&amp;nbsp; &amp;nbsp;7&lt;/div&gt;/" style="text;html=1;align=center;verticalAlign=middle;resizable=0;points=[];autosize=1;strokeColor=none;fillColor=none;" vertex="1" parent="1">
          <mxGeometry x="640" y="342.5" width="40" height="40" as="geometry" />
        </mxCell>
        <mxCell id="wYi5QQP4cXFv1H6Gll4Q-131" value="&lt;div&gt;&amp;nbsp; &amp;nbsp;7&lt;/div&gt;/" style="text;html=1;align=center;verticalAlign=middle;resizable=0;points=[];autosize=1;strokeColor=none;fillColor=none;" vertex="1" parent="1">
          <mxGeometry x="640" y="550" width="40" height="40" as="geometry" />
        </mxCell>
        <mxCell id="wYi5QQP4cXFv1H6Gll4Q-132" value="&lt;div&gt;&amp;nbsp; &amp;nbsp;7&lt;/div&gt;/" style="text;html=1;align=center;verticalAlign=middle;resizable=0;points=[];autosize=1;strokeColor=none;fillColor=none;" vertex="1" parent="1">
          <mxGeometry x="640" y="650" width="40" height="40" as="geometry" />
        </mxCell>
        <mxCell id="wYi5QQP4cXFv1H6Gll4Q-133" value="&lt;div&gt;&amp;nbsp; &amp;nbsp;1&lt;/div&gt;/" style="text;html=1;align=center;verticalAlign=middle;resizable=0;points=[];autosize=1;strokeColor=none;fillColor=none;" vertex="1" parent="1">
          <mxGeometry x="670" y="390" width="40" height="40" as="geometry" />
        </mxCell>
        <mxCell id="wYi5QQP4cXFv1H6Gll4Q-134" value="&lt;div&gt;&amp;nbsp; &amp;nbsp;1&lt;/div&gt;/" style="text;html=1;align=center;verticalAlign=middle;resizable=0;points=[];autosize=1;strokeColor=none;fillColor=none;" vertex="1" parent="1">
          <mxGeometry x="670" y="504.23" width="40" height="40" as="geometry" />
        </mxCell>
        <mxCell id="wYi5QQP4cXFv1H6Gll4Q-135" value="&lt;div&gt;&amp;nbsp; &amp;nbsp;1&lt;/div&gt;/" style="text;html=1;align=center;verticalAlign=middle;resizable=0;points=[];autosize=1;strokeColor=none;fillColor=none;" vertex="1" parent="1">
          <mxGeometry x="670" y="600" width="40" height="40" as="geometry" />
        </mxCell>
        <mxCell id="wYi5QQP4cXFv1H6Gll4Q-136" value="&lt;div&gt;&amp;nbsp; &amp;nbsp;1&lt;/div&gt;/" style="text;html=1;align=center;verticalAlign=middle;resizable=0;points=[];autosize=1;strokeColor=none;fillColor=none;" vertex="1" parent="1">
          <mxGeometry x="670" y="710" width="40" height="40" as="geometry" />
        </mxCell>
        <mxCell id="wYi5QQP4cXFv1H6Gll4Q-137" value="&lt;font color=&quot;#878787&quot;&gt;&lt;i&gt;AN0&lt;/i&gt;&lt;/font&gt;" style="text;html=1;align=center;verticalAlign=middle;resizable=0;points=[];autosize=1;strokeColor=none;fillColor=none;" vertex="1" parent="1">
          <mxGeometry x="740" y="387.5" width="50" height="30" as="geometry" />
        </mxCell>
        <mxCell id="wYi5QQP4cXFv1H6Gll4Q-141" value="&lt;i&gt;&lt;font color=&quot;#878787&quot;&gt;anode Dec Logic will stay&amp;nbsp;&amp;nbsp;&lt;/font&gt;&lt;/i&gt;&lt;div&gt;&lt;i&gt;&lt;font color=&quot;#878787&quot;&gt;the same throughout the Lab&lt;/font&gt;&lt;/i&gt;&lt;/div&gt;" style="text;html=1;align=center;verticalAlign=middle;resizable=0;points=[];autosize=1;strokeColor=none;fillColor=none;" vertex="1" parent="1">
          <mxGeometry x="205" y="650" width="180" height="40" as="geometry" />
        </mxCell>
        <mxCell id="wYi5QQP4cXFv1H6Gll4Q-142" value="&lt;font color=&quot;#878787&quot;&gt;&lt;i&gt;Synchronise Decoder&lt;br&gt;output&lt;/i&gt;&lt;/font&gt;" style="text;html=1;align=center;verticalAlign=middle;resizable=0;points=[];autosize=1;strokeColor=none;fillColor=none;" vertex="1" parent="1">
          <mxGeometry x="500" y="487.5" width="140" height="40" as="geometry" />
        </mxCell>
        <mxCell id="wYi5QQP4cXFv1H6Gll4Q-143" value="" style="group" vertex="1" connectable="0" parent="1">
          <mxGeometry x="550" y="570" width="40" height="55" as="geometry" />
        </mxCell>
        <mxCell id="wYi5QQP4cXFv1H6Gll4Q-144" value="&lt;font style=&quot;font-size: 10px;&quot;&gt;D&lt;/font&gt;&lt;font style=&quot;&quot;&gt;&lt;span style=&quot;font-size: 11px;&quot;&gt;&amp;nbsp; &amp;nbsp; &amp;nbsp; &lt;/span&gt;&lt;font style=&quot;font-size: 10px;&quot;&gt;&amp;nbsp;Q&lt;/font&gt;&lt;/font&gt;" style="rounded=0;whiteSpace=wrap;html=1;movable=1;resizable=1;rotatable=1;deletable=1;editable=1;locked=0;connectable=1;" vertex="1" parent="wYi5QQP4cXFv1H6Gll4Q-143">
          <mxGeometry width="40" height="50" as="geometry" />
        </mxCell>
        <mxCell id="wYi5QQP4cXFv1H6Gll4Q-145" value="" style="verticalLabelPosition=bottom;shadow=0;dashed=0;align=center;html=1;verticalAlign=top;shape=mxgraph.electrical.logic_gates.buffer2;direction=north;movable=1;resizable=1;rotatable=1;deletable=1;editable=1;locked=0;connectable=1;" vertex="1" parent="wYi5QQP4cXFv1H6Gll4Q-143">
          <mxGeometry x="17.5" y="40" width="5" height="15" as="geometry" />
        </mxCell>
        <mxCell id="wYi5QQP4cXFv1H6Gll4Q-146" value="new_clk" style="text;html=1;align=center;verticalAlign=middle;resizable=0;points=[];autosize=1;strokeColor=none;fillColor=none;fontSize=8;" vertex="1" parent="1">
          <mxGeometry x="545" y="625" width="50" height="20" as="geometry" />
        </mxCell>
        <mxCell id="wYi5QQP4cXFv1H6Gll4Q-147" value="//TODO&lt;br&gt;Button&lt;div&gt;&lt;br&gt;&lt;/div&gt;&lt;div&gt;&lt;br&gt;&lt;/div&gt;&lt;div&gt;&lt;br&gt;&lt;/div&gt;&lt;div&gt;&lt;br&gt;&lt;/div&gt;&lt;div&gt;&lt;br&gt;&lt;/div&gt;&lt;div&gt;&lt;br&gt;&lt;/div&gt;&lt;div&gt;&lt;br&gt;&lt;/div&gt;&lt;div&gt;&lt;br&gt;&lt;/div&gt;" style="whiteSpace=wrap;html=1;aspect=fixed;" vertex="1" parent="1">
          <mxGeometry x="60" y="70" width="150" height="150" as="geometry" />
        </mxCell>
        <mxCell id="wYi5QQP4cXFv1H6Gll4Q-153" value="" style="group" vertex="1" connectable="0" parent="1">
          <mxGeometry x="260" y="60" width="210" height="180" as="geometry" />
        </mxCell>
        <mxCell id="wYi5QQP4cXFv1H6Gll4Q-150" value="char Decoder&amp;nbsp; &amp;nbsp; &amp;nbsp; &amp;nbsp; &amp;nbsp; &amp;nbsp; &amp;nbsp; &amp;nbsp; &amp;nbsp; &amp;nbsp; &amp;nbsp; &amp;nbsp; &amp;nbsp; &amp;nbsp; &amp;nbsp; &amp;nbsp; &amp;nbsp; &amp;nbsp; &amp;nbsp;&lt;div&gt;&lt;br&gt;&lt;/div&gt;&lt;div&gt;&lt;div&gt;&lt;br&gt;&lt;/div&gt;&lt;div&gt;&lt;br&gt;&lt;/div&gt;&lt;div&gt;&lt;br&gt;&lt;/div&gt;&lt;div&gt;&lt;br&gt;&lt;/div&gt;&lt;div&gt;&lt;br&gt;&lt;/div&gt;&lt;div&gt;&lt;br&gt;&lt;/div&gt;&lt;div&gt;&lt;br&gt;&lt;/div&gt;&lt;div&gt;&lt;br&gt;&lt;/div&gt;&lt;div&gt;&lt;br&gt;&lt;/div&gt;&lt;div&gt;&lt;br&gt;&lt;/div&gt;&lt;/div&gt;" style="rounded=0;whiteSpace=wrap;html=1;" vertex="1" parent="wYi5QQP4cXFv1H6Gll4Q-153">
          <mxGeometry width="210" height="180" as="geometry" />
        </mxCell>
        <mxCell id="wYi5QQP4cXFv1H6Gll4Q-151" value="// add mem&lt;br&gt;msg mem" style="rounded=0;whiteSpace=wrap;html=1;" vertex="1" parent="wYi5QQP4cXFv1H6Gll4Q-153">
          <mxGeometry x="25" y="125" width="80" height="40" as="geometry" />
        </mxCell>
        <mxCell id="wYi5QQP4cXFv1H6Gll4Q-152" value="//handle&lt;br&gt;Button Logic" style="whiteSpace=wrap;html=1;aspect=fixed;" vertex="1" parent="wYi5QQP4cXFv1H6Gll4Q-153">
          <mxGeometry x="25" y="35" width="80" height="80" as="geometry" />
        </mxCell>
        <mxCell id="wYi5QQP4cXFv1H6Gll4Q-154" value="Anti-bounce" style="rounded=0;whiteSpace=wrap;html=1;" vertex="1" parent="1">
          <mxGeometry x="70" y="115" width="70" height="45" as="geometry" />
        </mxCell>
        <mxCell id="wYi5QQP4cXFv1H6Gll4Q-155" value="Hold-detect" style="rounded=0;whiteSpace=wrap;html=1;" vertex="1" parent="1">
          <mxGeometry x="70" y="170" width="70" height="45" as="geometry" />
        </mxCell>
        <mxCell id="wYi5QQP4cXFv1H6Gll4Q-156" style="edgeStyle=orthogonalEdgeStyle;rounded=0;orthogonalLoop=1;jettySize=auto;html=1;exitX=1;exitY=0.5;exitDx=0;exitDy=0;entryX=0;entryY=0.47;entryDx=0;entryDy=0;entryPerimeter=0;" edge="1" parent="1" source="wYi5QQP4cXFv1H6Gll4Q-147" target="wYi5QQP4cXFv1H6Gll4Q-150">
          <mxGeometry relative="1" as="geometry" />
        </mxCell>
        <mxCell id="wYi5QQP4cXFv1H6Gll4Q-158" style="edgeStyle=orthogonalEdgeStyle;rounded=0;orthogonalLoop=1;jettySize=auto;html=1;exitX=1;exitY=0.5;exitDx=0;exitDy=0;entryX=0;entryY=0.47;entryDx=0;entryDy=0;entryPerimeter=0;" edge="1" parent="1">
          <mxGeometry relative="1" as="geometry">
            <mxPoint x="470" y="140" as="sourcePoint" />
            <mxPoint x="520" y="140" as="targetPoint" />
          </mxGeometry>
        </mxCell>
        <mxCell id="wYi5QQP4cXFv1H6Gll4Q-159" value="" style="group" vertex="1" connectable="0" parent="1">
          <mxGeometry x="125" y="730" width="40" height="55" as="geometry" />
        </mxCell>
        <mxCell id="wYi5QQP4cXFv1H6Gll4Q-162" style="edgeStyle=orthogonalEdgeStyle;rounded=0;orthogonalLoop=1;jettySize=auto;html=1;exitX=0;exitY=0.5;exitDx=0;exitDy=0;endArrow=none;endFill=0;" edge="1" parent="wYi5QQP4cXFv1H6Gll4Q-159" source="wYi5QQP4cXFv1H6Gll4Q-160">
          <mxGeometry relative="1" as="geometry">
            <mxPoint x="-30" y="25.333333333333258" as="targetPoint" />
          </mxGeometry>
        </mxCell>
        <mxCell id="wYi5QQP4cXFv1H6Gll4Q-163" style="edgeStyle=orthogonalEdgeStyle;rounded=0;orthogonalLoop=1;jettySize=auto;html=1;exitX=1;exitY=0.5;exitDx=0;exitDy=0;endArrow=none;endFill=0;" edge="1" parent="wYi5QQP4cXFv1H6Gll4Q-159" source="wYi5QQP4cXFv1H6Gll4Q-160">
          <mxGeometry relative="1" as="geometry">
            <mxPoint x="60" y="25.333333333333258" as="targetPoint" />
          </mxGeometry>
        </mxCell>
        <mxCell id="wYi5QQP4cXFv1H6Gll4Q-160" value="&lt;font style=&quot;font-size: 10px;&quot;&gt;D&lt;/font&gt;&lt;font style=&quot;&quot;&gt;&lt;span style=&quot;font-size: 11px;&quot;&gt;&amp;nbsp; &amp;nbsp; &amp;nbsp; &lt;/span&gt;&lt;font style=&quot;font-size: 10px;&quot;&gt;&amp;nbsp;Q&lt;/font&gt;&lt;/font&gt;" style="rounded=0;whiteSpace=wrap;html=1;movable=1;resizable=1;rotatable=1;deletable=1;editable=1;locked=0;connectable=1;" vertex="1" parent="wYi5QQP4cXFv1H6Gll4Q-159">
          <mxGeometry width="40" height="50" as="geometry" />
        </mxCell>
        <mxCell id="wYi5QQP4cXFv1H6Gll4Q-161" value="" style="verticalLabelPosition=bottom;shadow=0;dashed=0;align=center;html=1;verticalAlign=top;shape=mxgraph.electrical.logic_gates.buffer2;direction=north;movable=1;resizable=1;rotatable=1;deletable=1;editable=1;locked=0;connectable=1;" vertex="1" parent="wYi5QQP4cXFv1H6Gll4Q-159">
          <mxGeometry x="17.5" y="40" width="5" height="15" as="geometry" />
        </mxCell>
        <mxCell id="wYi5QQP4cXFv1H6Gll4Q-164" value="" style="group" vertex="1" connectable="0" parent="1">
          <mxGeometry x="205" y="730" width="40" height="55" as="geometry" />
        </mxCell>
        <mxCell id="wYi5QQP4cXFv1H6Gll4Q-165" style="edgeStyle=orthogonalEdgeStyle;rounded=0;orthogonalLoop=1;jettySize=auto;html=1;exitX=0;exitY=0.5;exitDx=0;exitDy=0;endArrow=none;endFill=0;" edge="1" parent="wYi5QQP4cXFv1H6Gll4Q-164" source="wYi5QQP4cXFv1H6Gll4Q-167">
          <mxGeometry relative="1" as="geometry">
            <mxPoint x="-30" y="25.333333333333258" as="targetPoint" />
          </mxGeometry>
        </mxCell>
        <mxCell id="wYi5QQP4cXFv1H6Gll4Q-166" style="edgeStyle=orthogonalEdgeStyle;rounded=0;orthogonalLoop=1;jettySize=auto;html=1;exitX=1;exitY=0.5;exitDx=0;exitDy=0;endArrow=none;endFill=0;" edge="1" parent="wYi5QQP4cXFv1H6Gll4Q-164" source="wYi5QQP4cXFv1H6Gll4Q-167">
          <mxGeometry relative="1" as="geometry">
            <mxPoint x="80" y="25" as="targetPoint" />
          </mxGeometry>
        </mxCell>
        <mxCell id="wYi5QQP4cXFv1H6Gll4Q-177" value="" style="group" vertex="1" connectable="0" parent="wYi5QQP4cXFv1H6Gll4Q-164">
          <mxGeometry width="40" height="55" as="geometry" />
        </mxCell>
        <mxCell id="wYi5QQP4cXFv1H6Gll4Q-167" value="&lt;font style=&quot;font-size: 10px;&quot;&gt;D&lt;/font&gt;&lt;font style=&quot;&quot;&gt;&lt;span style=&quot;font-size: 11px;&quot;&gt;&amp;nbsp; &amp;nbsp; &amp;nbsp; &lt;/span&gt;&lt;font style=&quot;font-size: 10px;&quot;&gt;&amp;nbsp;Q&lt;/font&gt;&lt;/font&gt;" style="rounded=0;whiteSpace=wrap;html=1;movable=1;resizable=1;rotatable=1;deletable=1;editable=1;locked=0;connectable=1;" vertex="1" parent="wYi5QQP4cXFv1H6Gll4Q-177">
          <mxGeometry x="10" width="40" height="50" as="geometry" />
        </mxCell>
        <mxCell id="wYi5QQP4cXFv1H6Gll4Q-168" value="" style="verticalLabelPosition=bottom;shadow=0;dashed=0;align=center;html=1;verticalAlign=top;shape=mxgraph.electrical.logic_gates.buffer2;direction=north;movable=1;resizable=1;rotatable=1;deletable=1;editable=1;locked=0;connectable=1;" vertex="1" parent="wYi5QQP4cXFv1H6Gll4Q-177">
          <mxGeometry x="27.5" y="40" width="5" height="15" as="geometry" />
        </mxCell>
        <mxCell id="wYi5QQP4cXFv1H6Gll4Q-169" value="new_clk" style="text;html=1;align=center;verticalAlign=middle;resizable=0;points=[];autosize=1;strokeColor=none;fillColor=none;fontSize=8;" vertex="1" parent="1">
          <mxGeometry x="120" y="785" width="50" height="20" as="geometry" />
        </mxCell>
        <mxCell id="wYi5QQP4cXFv1H6Gll4Q-170" value="new_clk" style="text;html=1;align=center;verticalAlign=middle;resizable=0;points=[];autosize=1;strokeColor=none;fillColor=none;fontSize=8;" vertex="1" parent="1">
          <mxGeometry x="210" y="785" width="50" height="20" as="geometry" />
        </mxCell>
        <mxCell id="wYi5QQP4cXFv1H6Gll4Q-175" value="reset" style="text;html=1;align=center;verticalAlign=middle;resizable=0;points=[];autosize=1;strokeColor=none;fillColor=none;fontSize=8;" vertex="1" parent="1">
          <mxGeometry x="70" y="740" width="40" height="20" as="geometry" />
        </mxCell>
        <mxCell id="wYi5QQP4cXFv1H6Gll4Q-176" value="reset_prime" style="text;html=1;align=center;verticalAlign=middle;resizable=0;points=[];autosize=1;strokeColor=none;fillColor=none;fontSize=8;" vertex="1" parent="1">
          <mxGeometry x="155" y="740" width="70" height="20" as="geometry" />
        </mxCell>
        <mxCell id="wYi5QQP4cXFv1H6Gll4Q-178" value="reset_sync" style="text;html=1;align=center;verticalAlign=middle;resizable=0;points=[];autosize=1;strokeColor=none;fillColor=none;fontSize=8;" vertex="1" parent="1">
          <mxGeometry x="250" y="750" width="60" height="20" as="geometry" />
        </mxCell>
      </root>
    </mxGraphModel>
  </diagram>
</mxfile>
